<?xml version="1.0" encoding="utf-8"?>
<!-- Generator: Adobe Illustrator 26.0.3, SVG Export Plug-In . SVG Version: 6.00 Build 0)  -->
<svg version="1.0" id="katman_1" xmlns="http://www.w3.org/2000/svg" xmlns:xlink="http://www.w3.org/1999/xlink" x="0px" y="0px"
	 viewBox="0 0 600 450" style="enable-background:new 0 0 600 450;" xml:space="preserve">
<style type="text/css">
	.st0{fill-rule:evenodd;clip-rule:evenodd;fill:#151515;}
</style>
<path class="st0" d="M225.2,69.9c-0.5-0.8-1-1.4-1.7-2c-0.7-0.6-1.5-1-2.4-1.3c-0.9-0.3-1.8-0.5-2.8-0.5c-1.8,0-3.3,0.3-4.5,1
	c-1.2,0.7-2.2,1.6-3,2.7c-0.8,1.1-1.3,2.4-1.7,3.9c-0.3,1.4-0.5,2.9-0.5,4.5c0,1.5,0.2,2.9,0.5,4.3c0.3,1.4,0.9,2.7,1.7,3.8
	c0.8,1.1,1.8,2,3,2.7c1.2,0.7,2.7,1,4.5,1c2.4,0,4.3-0.7,5.6-2.2c1.4-1.5,2.2-3.4,2.5-5.8h7.6c-0.2,2.2-0.7,4.2-1.6,6
	c-0.8,1.8-1.9,3.3-3.3,4.6c-1.4,1.3-3,2.2-4.8,2.9c-1.8,0.7-3.9,1-6.1,1c-2.7,0-5.2-0.5-7.4-1.4c-2.2-0.9-4-2.2-5.6-3.9
	c-1.5-1.6-2.7-3.6-3.5-5.8c-0.8-2.2-1.2-4.6-1.2-7.2c0-2.6,0.4-5.1,1.2-7.4c0.8-2.3,2-4.2,3.5-5.9c1.5-1.7,3.4-3,5.6-4
	c2.2-1,4.6-1.4,7.4-1.4c2,0,3.8,0.3,5.6,0.8c1.7,0.6,3.3,1.4,4.7,2.5c1.4,1.1,2.5,2.4,3.4,4c0.9,1.6,1.5,3.4,1.7,5.4h-7.6
	C226,71.5,225.7,70.7,225.2,69.9z M244.3,89.8c1.1,1,2.6,1.5,4.6,1.5c1.4,0,2.7-0.3,3.7-1.1c1-0.7,1.7-1.5,1.9-2.3h6.3
	c-1,3.1-2.6,5.3-4.6,6.6c-2.1,1.3-4.6,2-7.5,2c-2,0-3.9-0.3-5.5-1c-1.6-0.7-3-1.6-4.2-2.7c-1.1-1.2-2-2.6-2.6-4.3
	c-0.6-1.6-0.9-3.5-0.9-5.4c0-1.9,0.3-3.7,0.9-5.3c0.6-1.6,1.5-3.1,2.7-4.3c1.2-1.2,2.6-2.2,4.2-2.8c1.6-0.7,3.4-1,5.4-1
	c2.2,0,4.1,0.4,5.8,1.3c1.6,0.9,3,2,4,3.4c1,1.4,1.8,3,2.3,4.9c0.5,1.8,0.6,3.7,0.5,5.7h-18.7C242.7,87.1,243.3,88.7,244.3,89.8z
	 M252.4,76.3c-0.9-0.9-2.2-1.4-3.9-1.4c-1.1,0-2.1,0.2-2.8,0.6c-0.8,0.4-1.4,0.9-1.8,1.4c-0.5,0.6-0.8,1.2-0.9,1.8
	c-0.2,0.6-0.3,1.2-0.3,1.7h11.6C253.8,78.5,253.2,77.2,252.4,76.3z M271.3,75v-4.8h-6.7v25.7h7.1V84.4c0-1.2,0.1-2.2,0.3-3.2
	c0.2-1,0.6-1.9,1.2-2.6c0.6-0.8,1.3-1.3,2.2-1.8c0.9-0.4,2-0.7,3.3-0.7c0.4,0,0.8,0,1.3,0.1h0l0.1,0c0.5,0,0.9,0.1,1.2,0.2v-6.5
	c-0.6-0.2-1.1-0.2-1.6-0.2c-0.9,0-1.8,0.1-2.6,0.4s-1.6,0.7-2.4,1.1c-0.7,0.5-1.4,1.1-2,1.7c-0.6,0.7-1,1.4-1.4,2.2H271.3z
	 M300.3,70.3V75h-5.2v12.7c0,1.2,0.2,2,0.6,2.4c0.4,0.4,1.2,0.6,2.4,0.6c0.4,0,0.8,0,1.2,0c0.4,0,0.7-0.1,1-0.1v5.4
	c-0.6,0.1-1.3,0.2-2,0.2c-0.7,0-1.5,0.1-2.2,0.1c-1.1,0-2.2-0.1-3.1-0.2c-1-0.1-1.9-0.4-2.6-0.9c-0.8-0.4-1.3-1-1.8-1.8
	c-0.4-0.8-0.7-1.8-0.7-3.1V75h-4.3v-4.7h4.3v-7.7h7.1v7.7H300.3z M304.4,60.5v5.8h7.1v-5.8H304.4z M311.6,95.9V70.3h-7.1v25.6H311.6
	z M314.4,75v-4.7h4.3v-2c0-2.3,0.7-4.1,2.2-5.6c1.4-1.5,3.6-2.2,6.5-2.2c0.6,0,1.3,0,1.9,0.1c0.2,0,0.5,0,0.7,0
	c0.4,0,0.8,0.1,1.2,0.1v5.3c-0.8-0.1-1.7-0.1-2.6-0.1c-1,0-1.7,0.2-2.1,0.7c-0.4,0.4-0.6,1.2-0.6,2.3v1.5h4.9V75h-4.9v20.9h-7.1V75
	H314.4z M335.5,60.5v5.8h7.1v-5.8H335.5z M342.6,95.9V70.3h-7.1v25.6H342.6z M353.9,89.8c1.1,1,2.6,1.5,4.6,1.5
	c1.4,0,2.7-0.3,3.7-1.1c1-0.7,1.7-1.5,1.9-2.3h6.3c-1,3.1-2.6,5.3-4.6,6.6c-2.1,1.3-4.6,2-7.5,2c-2,0-3.9-0.3-5.5-1
	c-1.6-0.7-3-1.6-4.2-2.7c-1.1-1.2-2-2.6-2.6-4.3c-0.6-1.6-0.9-3.5-0.9-5.4c0-1.9,0.3-3.7,0.9-5.3c0.6-1.6,1.5-3.1,2.7-4.3
	c1.2-1.2,2.6-2.2,4.2-2.8c1.6-0.7,3.4-1,5.4-1c2.2,0,4.1,0.4,5.8,1.3c1.6,0.9,3,2,4,3.4c1,1.4,1.8,3,2.3,4.9
	c0.5,1.8,0.6,3.7,0.5,5.7h-18.7C352.2,87.1,352.8,88.7,353.9,89.8z M361.9,76.3c-0.8-0.9-2.2-1.4-3.9-1.4c-1.1,0-2.1,0.2-2.8,0.6
	c-0.8,0.4-1.4,0.9-1.8,1.4c-0.5,0.6-0.8,1.2-0.9,1.8c-0.2,0.6-0.3,1.2-0.3,1.7h11.6C363.4,78.5,362.8,77.2,361.9,76.3z M389.2,95.6
	c1.4-0.6,2.4-1.6,3.3-3h0.1v3.3h6.7V60.5h-7.1v12.9h-0.1c-0.8-1.3-1.9-2.2-3.3-2.8c-1.4-0.7-2.8-1-4.4-1c-1.9,0-3.6,0.4-5,1.1
	c-1.4,0.7-2.6,1.7-3.6,2.9c-0.9,1.2-1.7,2.6-2.2,4.2c-0.5,1.6-0.7,3.3-0.7,5c0,1.8,0.2,3.5,0.7,5.2c0.5,1.6,1.2,3.1,2.2,4.4
	c0.9,1.3,2.2,2.3,3.6,3c1.5,0.8,3.2,1.1,5.1,1.1C386.3,96.5,387.8,96.2,389.2,95.6z M391.1,77.4c0.5,0.8,0.8,1.6,1,2.6
	c0.2,1,0.3,2,0.3,3c0,1.1-0.1,2.1-0.3,3.1c-0.2,1-0.5,1.9-1,2.6c-0.5,0.8-1.1,1.4-1.9,1.9c-0.8,0.5-1.8,0.7-2.9,0.7
	c-1.1,0-2.1-0.2-2.8-0.7c-0.8-0.5-1.4-1.1-2-1.9c-0.5-0.8-0.9-1.7-1.1-2.7c-0.2-1-0.3-2-0.3-3c0-1.1,0.1-2.1,0.3-3
	c0.2-1,0.6-1.9,1-2.6c0.5-0.8,1.1-1.4,1.9-1.8c0.8-0.5,1.8-0.7,3-0.7c1.2,0,2.1,0.2,2.9,0.7C390,76,390.7,76.6,391.1,77.4z
	 M386.5,211.3c0,47-38.6,85.2-86.2,85.2c-47.6,0-86.2-38.1-86.2-85.2c0-47,38.6-85.2,86.2-85.2C347.9,126.1,386.5,164.2,386.5,211.3
	z M300.3,113.1c-54.8,0-99.3,43.9-99.3,98.1c0,54.2,44.4,98.1,99.3,98.1c54.8,0,99.3-43.9,99.3-98.1
	C399.6,157,355.1,113.1,300.3,113.1z M258.8,155.2h41.1c10,0,23.2,0,30,4.1c7.5,4.4,13.3,12.4,13.3,23.4c0,11.9-6.3,20.9-16.8,25.1
	v0.3c14,2.8,21.6,13.2,21.6,27c0,16.5-11.9,32.2-34.4,32.2h-54.7V155.2z M273.8,203.4H304c17.1,0,24.1-6.1,24.1-17.9
	c0-15.5-11.1-17.7-24.1-17.7h-30.2V203.4z M273.8,254.7h37.8c13,0,21.3-7.8,21.3-20.1c0-14.6-11.9-18.7-24.6-18.7h-34.5V254.7z
	 M393.4,315.9l0.1,0c0.1,0,0.1,0,0.2,0c0,0,0.1,0,0.1,0c0.2,0,0.4-0.1,0.6-0.1c0.2-0.1,0.3-0.2,0.4-0.3c0.1-0.2,0.1-0.4,0.1-0.6
	c0-0.2,0-0.4-0.1-0.5c-0.1-0.1-0.2-0.2-0.3-0.3c-0.1-0.1-0.3-0.1-0.5-0.2c-0.2,0-0.3,0-0.6,0h-1.4v2.2h1.1v0
	C393.2,315.9,393.3,315.9,393.4,315.9z M393.6,312.8c0.8,0,1.4,0.2,1.8,0.5c0.4,0.3,0.6,0.8,0.6,1.5c0,0.6-0.2,1.1-0.5,1.4
	c-0.3,0.3-0.8,0.4-1.3,0.5l2,3h-1.2l-1.9-2.9H392v2.9h-1.1v-6.8L393.6,312.8L393.6,312.8z M388.8,318.2c0.2,0.6,0.6,1.2,1,1.6
	c0.4,0.4,0.9,0.8,1.5,1.1c0.6,0.2,1.2,0.4,1.9,0.4c0.7,0,1.3-0.1,1.9-0.4c0.6-0.3,1.1-0.6,1.5-1.1c0.4-0.4,0.8-1,1-1.6
	c0.2-0.6,0.4-1.3,0.4-2c0-0.7-0.1-1.4-0.4-2c-0.2-0.6-0.6-1.1-1-1.6c-0.5-0.4-1-0.8-1.5-1c-0.6-0.2-1.2-0.4-1.9-0.4
	c-0.7,0-1.3,0.1-1.9,0.4c-0.6,0.3-1.1,0.6-1.5,1c-0.5,0.4-0.8,1-1,1.6c-0.2,0.6-0.4,1.2-0.4,2C388.4,316.9,388.5,317.6,388.8,318.2z
	 M387.8,313.9c0.3-0.7,0.7-1.3,1.3-1.8c0.5-0.5,1.2-0.9,1.9-1.2c0.7-0.3,1.5-0.4,2.3-0.4c0.8,0,1.6,0.1,2.3,0.4
	c0.7,0.3,1.3,0.7,1.9,1.2c0.5,0.5,1,1.1,1.3,1.8c0.3,0.7,0.5,1.5,0.5,2.3s-0.1,1.6-0.5,2.3c-0.3,0.7-0.7,1.3-1.3,1.9
	c-0.5,0.5-1.2,0.9-1.9,1.2c-0.7,0.3-1.5,0.4-2.3,0.4c-0.8,0-1.6-0.1-2.3-0.4c-0.7-0.3-1.4-0.7-1.9-1.2c-0.5-0.5-1-1.1-1.3-1.9
	c-0.3-0.7-0.5-1.5-0.5-2.3C387.3,315.4,387.4,314.6,387.8,313.9z M399.4,330H201.2v12.9h198.1V330z M213.1,363.8
	c2.8,0,5.2,1.9,5.5,4.4h5.4c-0.7-5.8-5.3-9-10.9-9c-7.8,0-12.4,5.8-12.4,13.2c0,7.2,4.6,13,12.4,13c6.2,0,10.5-4,11.1-10.2h-5.4
	c-0.4,3.3-2.3,5.6-5.7,5.6c-5,0-6.8-4.2-6.8-8.3C206.2,368,208.1,363.8,213.1,363.8z M245.2,375.7c0-5.8-3.7-9.5-9.5-9.5
	c-5.7,0-9.4,3.8-9.4,9.5c0,5.7,3.7,9.5,9.4,9.5C241.5,385.2,245.2,381.5,245.2,375.7z M240.2,375.7c0,2.8-1,5.8-4.4,5.8
	c-3.4,0-4.4-2.9-4.4-5.8c0-2.9,1-5.8,4.4-5.8C239.2,369.9,240.2,372.8,240.2,375.7z M248.3,366.6h4.8v3.4h0.1
	c0.9-2.3,3.4-3.8,5.8-3.8c0.3,0,0.8,0.1,1.1,0.2v4.6c-0.5-0.1-1.2-0.2-1.8-0.2c-3.7,0-5,2.6-5,5.8v8.1h-5V366.6z M266.8,366.7h-4.8
	h0v24.4h5v-8.6h0.1c1.2,1.8,3.3,2.7,5.5,2.7c5.3,0,8-4.5,8-9.3c0-5.1-2.6-9.7-8.3-9.7c-2.3,0-4.2,0.9-5.4,2.8h-0.1V366.7z
	 M271.3,369.9c3.2,0,4.4,3,4.4,5.8c0,2.9-1.1,5.7-4.3,5.7c-3.2,0-4.4-2.8-4.4-5.7C266.9,372.8,268,369.9,271.3,369.9z M291.7,366.2
	c5.8,0,9.5,3.8,9.5,9.5c0,5.7-3.7,9.5-9.5,9.5c-5.7,0-9.4-3.8-9.4-9.5C282.2,369.9,285.9,366.2,291.7,366.2z M291.7,381.5
	c3.4,0,4.5-2.9,4.5-5.8c0-2.9-1-5.8-4.5-5.8c-3.4,0-4.4,2.9-4.4,5.8C287.2,378.6,288.3,381.5,291.7,381.5z M309,366.6h-4.8h0v18.1h5
	v-8.1c0-3.2,1.3-5.8,5-5.8c0.6,0,1.4,0.1,1.8,0.2v-4.6c-0.3-0.1-0.7-0.2-1.1-0.2c-2.4,0-4.9,1.6-5.8,3.8H309V366.6z M317.5,372.2
	c0.3-4.7,4.5-6,8.6-6c3.6,0,8,0.8,8,5.1v9.4c0,1.6,0.2,3.3,0.6,4h-5.1c-0.2-0.6-0.3-1.2-0.3-1.7c-1.6,1.6-3.9,2.2-6.1,2.2
	c-3.5,0-6.2-1.7-6.2-5.4c0-4.1,3.1-5.1,6.2-5.5c0.5-0.1,1.1-0.1,1.6-0.2h0c2.4-0.3,4.4-0.5,4.4-2.2c0-2.1-1.5-2.4-3.2-2.4
	c-1.9,0-3.1,0.8-3.3,2.7H317.5z M329.1,375.9c-0.6,0.5-1.8,0.7-3,0.9l0,0c-0.4,0.1-0.8,0.1-1.2,0.2c-1.6,0.3-3,0.8-3,2.7
	c0,1.8,1.4,2.3,3.1,2.3c3.9,0,4.1-3.1,4.1-4.1L329.1,375.9L329.1,375.9z M347.9,366.7h-3.7v-5.4h-5v5.4h-3v3.3h3v10.7
	c0,3.6,2.7,4.3,5.8,4.3c1,0,2.1,0,2.9-0.2v-3.9c-0.5,0.1-1,0.1-1.6,0.1c-1.7,0-2.1-0.4-2.1-2.1V370h3.7V366.7z M356.7,363.9h-5v-4.1
	h5V363.9z M351.7,366.7h5v18.1h-5V366.7z M379,375.7c0-5.8-3.7-9.5-9.5-9.5c-5.7,0-9.4,3.8-9.4,9.5c0,5.7,3.7,9.5,9.4,9.5
	C375.3,385.2,379,381.5,379,375.7z M374,375.7c0,2.8-1,5.8-4.5,5.8c-3.4,0-4.4-2.9-4.4-5.8c0-2.9,1-5.8,4.4-5.8
	C372.9,369.9,374,372.8,374,375.7z M382.2,366.7h4.8v2.5h0.1c1.3-2,3.5-3,5.6-3c5.3,0,6.7,3,6.7,7.4v11.1h-5v-10.2
	c0-3-0.9-4.4-3.2-4.4c-2.7,0-3.9,1.5-3.9,5.2v9.5h-5V366.7z"/>
</svg>
