<svg width="145" height="60" viewBox="0 0 145 60" fill="none" xmlns="http://www.w3.org/2000/svg">
<circle cx="30" cy="30" r="30" fill="#E3CCB6"/>
<path d="M80.4273 34.52H75.1873L74.3473 37H70.7673L75.8473 22.96H79.8073L84.8873 37H81.2673L80.4273 34.52ZM79.5473 31.88L77.8073 26.74L76.0873 31.88H79.5473ZM89.7934 22.96V31.36C89.7934 32.2 90 32.8467 90.4134 33.3C90.8267 33.7533 91.4334 33.98 92.2334 33.98C93.0334 33.98 93.6467 33.7533 94.0734 33.3C94.5 32.8467 94.7134 32.2 94.7134 31.36V22.96H98.1334V31.34C98.1334 32.5933 97.8667 33.6533 97.3334 34.52C96.8 35.3867 96.08 36.04 95.1734 36.48C94.28 36.92 93.28 37.14 92.1734 37.14C91.0667 37.14 90.0734 36.9267 89.1934 36.5C88.3267 36.06 87.64 35.4067 87.1334 34.54C86.6267 33.66 86.3734 32.5933 86.3734 31.34V22.96H89.7934ZM107.695 37L104.775 31.7H103.955V37H100.535V22.96H106.275C107.382 22.96 108.322 23.1533 109.095 23.54C109.882 23.9267 110.468 24.46 110.855 25.14C111.242 25.8067 111.435 26.5533 111.435 27.38C111.435 28.3133 111.168 29.1467 110.635 29.88C110.115 30.6133 109.342 31.1333 108.315 31.44L111.555 37H107.695ZM103.955 29.28H106.075C106.702 29.28 107.168 29.1267 107.475 28.82C107.795 28.5133 107.955 28.08 107.955 27.52C107.955 26.9867 107.795 26.5667 107.475 26.26C107.168 25.9533 106.702 25.8 106.075 25.8H103.955V29.28ZM117.002 25.7V28.54H121.582V31.18H117.002V34.26H122.182V37H113.582V22.96H122.182V25.7H117.002ZM133.142 34.52H127.902L127.062 37H123.482L128.562 22.96H132.522L137.602 37H133.982L133.142 34.52ZM132.262 31.88L130.522 26.74L128.802 31.88H132.262ZM140.748 37.16C140.148 37.16 139.655 36.9867 139.268 36.64C138.895 36.28 138.708 35.84 138.708 35.32C138.708 34.7867 138.895 34.34 139.268 33.98C139.655 33.62 140.148 33.44 140.748 33.44C141.335 33.44 141.815 33.62 142.188 33.98C142.575 34.34 142.768 34.7867 142.768 35.32C142.768 35.84 142.575 36.28 142.188 36.64C141.815 36.9867 141.335 37.16 140.748 37.16Z" fill="#F6F6F6"/>
<path d="M35.2332 37.888H24.7572L22.9572 43H18.6732L27.6372 17.944H32.3892L41.3532 43H37.0332L35.2332 37.888ZM34.0812 34.54L30.0132 22.912L25.9092 34.54H34.0812Z" fill="#1A1A1A"/>
<line x1="35.9397" y1="17.658" x2="45.0032" y2="42.5598" stroke="#F6F6F6" stroke-width="2"/>
</svg>
